<svg width="4007" height="963" viewBox="0 0 4007 963" fill="none" xmlns="http://www.w3.org/2000/svg">
<g clip-path="url(#clip0_1449_12482)">
<path d="M693.088 -2014.73C1038.32 -2239.37 1747.77 -2394.13 2523.45 -1788.1L2523.43 -1788.07C2848 -1534.81 3224.8 -914.984 2905.32 14.6831L2905.39 14.7065C2771.64 404.268 2307.86 963 1323.51 963V962.964C911.602 963.211 232.571 706.5 -87.8223 -223.991L195.833 -321.661C472.266 481.158 1032.53 663.228 1323.54 662.965V662.999C2171.34 662.988 2526.09 193.924 2621.22 -81.4858L2621.16 -81.5063C2897.59 -884.325 2568.19 -1372.73 2338.71 -1551.69L2338.73 -1551.72C1669.65 -2074.44 1100.63 -1922 856.707 -1763.28L693.088 -2014.73Z" fill="url(#paint0_linear_1449_12482)"/>
</g>
<defs>
<linearGradient id="paint0_linear_1449_12482" x1="3041.57" y1="-1700.99" x2="-467.929" y2="-732.886" gradientUnits="userSpaceOnUse">
<stop offset="0.223958" stop-color="#7157CD"/>
<stop offset="1" stop-color="#43C8BC"/>
</linearGradient>
<clipPath id="clip0_1449_12482">
<rect width="4007" height="2241" fill="white"/>
</clipPath>
</defs>
</svg>
