<svg width="1280" height="661" viewBox="0 1717 1280 661" fill="none" xmlns="http://www.w3.org/2000/svg">
<g clip-path="url(#clip0_1651_12883)">
<path d="M173.099 1907.49C492.895 1720.05 797.399 1717.63 1041.64 1782.15C1285.42 1846.55 1469.6 1977.47 1554.74 2056.89L1554.78 2056.85C1967.43 2434.95 1950.95 2851.44 1859.98 3069L1704.26 3001.57C1768.29 2848.46 1797.26 2513.61 1445.73 2188.68L1445.62 2188.79C1436.55 2180.07 1425.53 2170.2 1412.68 2159.52C1379.85 2132.22 1335.07 2099.62 1280.34 2067.3C1204.11 2022.26 1108.57 1977.76 999.118 1948.84C821.579 1901.94 607.756 1895.95 377.467 1995.7C337.617 2012.96 297.275 2033.39 256.542 2057.32C250.426 2061.08 244.395 2064.87 238.446 2068.67C-151.553 2318.12 -184.462 2645.34 -150.802 2805.77L-316.303 2841.73C-364.815 2610.51 -302.892 2198.46 173.069 1907.44L173.099 1907.49Z" fill="url(#paint4_linear_1651_12883)"/>
</g>
<defs>
<linearGradient id="paint4_linear_1651_12883" x1="1702.18" y1="2108.84" x2="420.659" y2="1941.63" gradientUnits="userSpaceOnUse">
<stop stop-color="#43C8BC"/>
<stop offset="0.838542" stop-color="#7157CD"/>
</linearGradient>
<clipPath id="clip0_1651_12883">
<rect width="1280" height="2378" fill="white"/>
</clipPath>
</defs>
</svg>
