<svg width="4007" height="1141" viewBox="0 1100 4007 1141" fill="none" xmlns="http://www.w3.org/2000/svg">
<g clip-path="url(#clip0_1449_12482)">
<path d="M1089.71 1389.26C1656.62 1062.75 2196.42 1058.53 2629.39 1170.92C3061.54 1283.11 3388.04 1511.17 3538.98 1649.53L3539.05 1649.45C4270.56 2308.11 4241.36 3033.66 4080.08 3412.65L3804.03 3295.18C3917.53 3028.45 3968.89 2445.15 3345.72 1879.1L3345.54 1879.29C3231.13 1771.19 2941.84 1561.98 2554.01 1461.3C2184.82 1365.46 1727.13 1367.69 1237.63 1650.26C515.994 2087.14 454.938 2670.36 515.518 2954.1L222.129 3016.74C136.131 2613.94 245.904 1896.15 1089.65 1389.17L1089.71 1389.26Z" fill="url(#paint1_linear_1449_12482)"/>
</g>
<defs>
<linearGradient id="paint1_linear_1449_12482" x1="3800.34" y1="1740.02" x2="1529.91" y2="1438.57" gradientUnits="userSpaceOnUse">
<stop stop-color="#43C8BC"/>
<stop offset="0.838542" stop-color="#7157CD"/>
</linearGradient>
<clipPath id="clip0_1449_12482">
<rect width="4007" height="2241" fill="white"/>
</clipPath>
</defs>
</svg>
