<svg width="1280" height="1300" viewBox="0 400 1280 1300" fill="none" xmlns="http://www.w3.org/2000/svg">
<g clip-path="url(#clip0_1651_12883)">
<path fill-rule="evenodd" clip-rule="evenodd" d="M345.357 -715.761C526.695 -802.785 812.971 -835.744 1139.89 -626.199L1125.71 -604.64C1140.67 -594.368 1155.7 -583.554 1170.8 -572.178L1170.79 -572.164C1332.96 -450.105 1525.51 -149.64 1380.93 304.576L1381 304.599C1315.09 492.911 1086.55 763 601.48 763V762.983C398.76 763.102 64.7484 639.328 -93.3869 190.95L-93.4611 190.977C-157.463 2.00793 -143.65 -351.531 238.589 -650.169L238.599 -650.155C249.194 -658.443 260.581 -666.658 272.724 -674.696L272.374 -675.209C293.812 -689.512 318.238 -703.272 345.357 -715.761ZM1083.51 -456.369C749.359 -708.164 472.964 -631.688 355.703 -553.453L354.648 -554.993C344.923 -548.639 335.986 -542.223 327.87 -535.87L327.86 -535.883C-1.84024 -278.286 0.492863 8.48434 45.7128 141.999L44.034 142.589L45.7801 142C182.001 530.079 458.088 618.092 601.495 617.965V617.98C1019.15 617.975 1193.99 391.368 1240.92 258.22L1240.87 258.203C1365.63 -133.711 1198.11 -370.153 1083.5 -456.357L1083.51 -456.369Z" fill="url(#paint0_linear_1651_12883)"/>
<path fill-rule="evenodd" clip-rule="evenodd" d="M1245.52 869.646C1244.87 869.483 1244.23 869.32 1243.58 869.158C1191.34 856.131 1135.97 846.454 1078.02 841.567C900.164 826.567 698.101 856.699 488.502 973.603L488.476 973.56C73.6282 1214.95 19.6617 1556.71 61.9444 1748.5C61.9493 1748.52 61.9537 1748.53 61.9581 1748.54C61.9637 1748.55 61.9693 1748.56 61.9757 1748.6C79.3768 1844.31 132.35 1964.45 238.447 2068.67C244.395 2064.87 250.427 2061.08 256.543 2057.32C297.275 2033.39 337.618 2012.96 377.467 1995.7C267.739 1904.48 219.982 1794.74 206.18 1718.63C176.411 1583.51 206.463 1305.86 561.231 1097.87C801.904 963.333 1026.94 962.271 1208.46 1007.9C1399.14 1055.84 1541.38 1155.45 1597.63 1206.92L1597.72 1206.83C1674.65 1274.49 1730.67 1342.68 1770.55 1408.86C1770.53 1408.98 1770.51 1409.1 1770.49 1409.21C1770.48 1409.35 1770.46 1409.49 1770.43 1409.63C1759.11 1486.02 1733.95 1570.47 1689.8 1662.55C1583.49 1873.06 1432.06 1996.22 1280.34 2067.3C1335.07 2099.62 1379.85 2132.22 1412.68 2159.52C1565.67 2072.26 1713.05 1935.37 1819.58 1724.91L1819.63 1724.93C2028.57 1292.83 1882.21 979.317 1739.91 843.963L1636.99 949.353C1680.64 990.871 1730.01 1061.14 1757.15 1157.88C1737.16 1137.65 1715.73 1117.5 1692.78 1097.49L1692.74 1097.52C1618.53 1031.65 1458 923.059 1245.52 869.646Z" fill="url(#paint5_linear_1651_12883)"/>
</g>
<defs>
<linearGradient id="paint0_linear_1651_12883" x1="229.143" y1="-629.649" x2="1713.86" y2="-545.44" gradientUnits="userSpaceOnUse">
<stop stop-color="#43C8BC"/>
<stop offset="0.776042" stop-color="#7157CD"/>
</linearGradient>
<linearGradient id="paint5_linear_1651_12883" x1="1820.82" y1="1140.65" x2="706.046" y2="987.867" gradientUnits="userSpaceOnUse">
<stop stop-color="#43C8BC"/>
<stop offset="0.838542" stop-color="#7157CD"/>
</linearGradient>
<clipPath id="clip0_1651_12883">
<rect width="1280" height="2378" fill="white"/>
</clipPath>
</defs>
</svg>
