<svg width="78" height="67" viewBox="0 0 78 67" fill="none" xmlns="http://www.w3.org/2000/svg">
<g clip-path="url(#clip0_4307_1972)">
<path d="M70.9502 51.4498L70.5887 51.3223L39.916 40.4881L39.1681 40.1822L38.7567 40.0611H38.5884C38.5385 40.042 38.4762 40.042 38.4263 40.0611H38.3141L38.2705 40.1057V40.1631C38.2705 40.1631 38.2705 40.2268 38.2705 40.2587V40.3351L38.3391 40.4498L38.4014 40.5646L38.6445 40.9724L48.9975 58.919L49.7891 60.2701C49.8203 60.3211 49.8702 60.3657 49.92 60.3975H50.1818L50.2815 60.3593L70.9191 52.0743H70.9627C71.0063 52.0488 71.0437 52.017 71.0687 51.9787C71.0998 51.9405 71.1185 51.8959 71.131 51.8449V51.762C71.131 51.6983 71.1185 51.6346 71.0811 51.5772C71.05 51.5199 71.0001 51.4752 70.9502 51.4498ZM50.2317 59.6519L39.2803 40.9916L69.822 51.8258L50.2317 59.6519Z" fill="#30466B"/>
<path d="M69.8408 51.8002L50.2317 59.6518L39.2803 40.9915L69.8408 51.8002Z" fill="#30466B"/>
<path d="M74.9523 34.5229C74.9523 34.5229 74.9523 34.491 74.9523 34.4719C74.9273 34.4082 74.8837 34.3572 74.8276 34.3189C74.7902 34.2934 74.7466 34.2743 74.703 34.268C74.6593 34.2552 74.6219 34.2552 74.5783 34.268L72.9515 34.5292L39.6235 39.8189L38.7447 39.9591L38.5078 39.9973H38.3395L38.2959 40.0419C38.2959 40.0419 38.2959 40.1057 38.2959 40.1375V40.1694C38.2959 40.1694 38.3271 40.214 38.3458 40.2268L38.4019 40.2714H38.4517L38.539 40.3032L38.7571 40.8195L39.3119 41.017L69.8537 51.8512L70.7388 52.1699H70.851C70.9133 52.1699 70.9694 52.1571 71.0192 52.1253C71.0629 52.0998 71.1003 52.0679 71.1252 52.0297C71.1564 51.9914 71.1751 51.9468 71.1875 51.8958L74.9647 34.7523V34.7204C74.9772 34.6886 74.9834 34.6567 74.9772 34.6185C74.9772 34.5866 74.9647 34.5484 74.9523 34.5229ZM70.5892 51.3223L39.9165 40.4881L74.1981 35.0518L70.5892 51.3223Z" fill="#30466B"/>
<path d="M74.1727 35.0391L70.5887 51.3223L39.916 40.4753L74.1727 35.0391Z" fill="#30466B"/>
<path d="M74.9518 34.5229L68.5443 15.5312C68.5443 15.5312 68.5443 15.4993 68.5443 15.4865C68.5443 15.4674 68.5443 15.4483 68.5443 15.4292L68.5069 15.3846L68.4446 15.3336L68.3698 15.3017C68.3199 15.2826 68.2638 15.2826 68.2077 15.2954C68.1516 15.3081 68.1018 15.3272 68.0581 15.3591L67.5969 15.7223L59.7183 21.7003L51.9021 27.7611L51.4845 28.0861L51.3661 28.1753C51.3287 28.2072 51.3038 28.2518 51.2851 28.2964C51.2664 28.341 51.2539 28.392 51.2539 28.4366C51.2539 28.5003 51.2726 28.5641 51.31 28.6151C51.3412 28.666 51.391 28.7106 51.4471 28.7425H51.5469L51.6902 28.7808L72.951 34.4592L74.5467 34.8861H74.7711L74.8334 34.8479C74.8334 34.8479 74.8708 34.8224 74.8833 34.8033C74.902 34.7842 74.9144 34.7651 74.9269 34.7459C74.9269 34.7268 74.9269 34.7077 74.9269 34.6886V34.6121C74.9269 34.6121 74.9518 34.5547 74.9518 34.5229ZM52.3509 28.2964L68.0519 16.1366L74.1104 34.1023L52.3509 28.2964Z" fill="#30466B"/>
<path d="M74.0856 34.1023L52.3511 28.2964L68.0271 16.1366L74.0856 34.1023Z" fill="#30466B"/>
<path d="M74.9521 34.5229C74.9521 34.5229 74.9521 34.491 74.9521 34.4719C74.9272 34.4082 74.8835 34.3572 74.8274 34.3189C74.7963 34.2935 74.7589 34.2743 74.7215 34.268L74.0982 34.1023L52.3512 28.2964L51.9149 28.1817L51.6905 28.1243H51.6468C51.597 28.1116 51.5533 28.118 51.5035 28.1243C51.4598 28.1371 51.4162 28.1626 51.3788 28.1944L51.2604 28.3028L50.8303 28.6915L38.6385 39.7361L38.3767 39.9782L38.3206 40.0292H38.2832C38.2458 40.0611 38.2147 40.0993 38.1897 40.1439C38.1648 40.1885 38.1523 40.2332 38.1523 40.2841V40.3479C38.1586 40.418 38.1897 40.4817 38.2396 40.5263C38.2645 40.5646 38.3019 40.59 38.3456 40.6028H38.7258L39.0125 40.5582L39.8727 40.4243L74.1543 34.9881L74.6529 34.9053H74.7402L74.8025 34.867C74.8025 34.867 74.8399 34.8415 74.8524 34.8224C74.8711 34.8033 74.8835 34.7842 74.896 34.7651C74.896 34.7459 74.896 34.7268 74.896 34.7077V34.6312C74.9209 34.5994 74.9459 34.5611 74.9521 34.5165V34.5229ZM39.6046 39.8125L51.6718 28.8445L72.9326 34.5229L39.6046 39.8125Z" fill="#30466B"/>
<path d="M72.9323 34.5229L39.5981 39.8125L51.6715 28.8445L72.9323 34.5229Z" fill="#30466B"/>
<path d="M68.5321 15.4802C68.5321 15.4802 68.5321 15.4483 68.5321 15.4356C68.5321 15.4164 68.5321 15.3973 68.5321 15.3782L68.4947 15.3336L68.4324 15.2826H68.395L51.1857 7.46286H50.9426C50.9426 7.46286 50.9052 7.46286 50.8865 7.46286H50.8241C50.8241 7.46286 50.7867 7.48198 50.7743 7.5011C50.7182 7.56483 50.687 7.65405 50.687 7.74327V8.53991L51.2231 28.0733V28.494C51.2231 28.5577 51.2417 28.6214 51.2791 28.6724C51.3103 28.7234 51.3602 28.768 51.4163 28.7999H51.6282C51.6282 28.7999 51.6718 28.8062 51.6968 28.7999H51.7342L52.2764 28.3792L68.0522 16.1366L68.4324 15.8434C68.4823 15.8052 68.5197 15.7606 68.5446 15.7032C68.5695 15.6459 68.5758 15.5885 68.5695 15.5248L68.5321 15.4802ZM59.7187 21.7003L51.9024 27.7611L51.3664 8.31685L67.5286 15.6459L59.7187 21.7003Z" fill="#30466B"/>
<path d="M67.5284 15.6459L59.7185 21.7003L51.9022 27.7611L51.3662 8.31049L67.5284 15.6459Z" fill="#30466B"/>
<path d="M51.9084 28.3537C51.8897 28.3028 51.8647 28.2518 51.8273 28.2135C51.79 28.1753 51.7401 28.1434 51.6902 28.1243H51.5032L51.2227 28.0733L33.6332 25.352L33.2343 25.2883L33.0036 25.2501H32.7231V25.2883C32.7231 25.2883 32.7231 25.3202 32.7231 25.3393C32.7231 25.3584 32.7231 25.3775 32.7231 25.3966C32.7231 25.4158 32.7231 25.4413 32.7231 25.4604C32.7231 25.4795 32.7231 25.4986 32.7231 25.5177C32.7231 25.5369 32.7231 25.5623 32.7231 25.5815V25.7026L32.8291 25.983L38.096 39.838L38.1708 40.0356L38.2394 40.2204V40.2969C38.2394 40.2969 38.2705 40.3415 38.2892 40.3542L38.3453 40.3988H38.6445L38.7131 40.3351L38.8502 40.214L39.0808 40.0101L39.5109 39.6149L51.6715 28.8445L51.7775 28.7425C51.8149 28.7106 51.846 28.666 51.8647 28.6214C51.8834 28.5768 51.8897 28.5258 51.8897 28.4748C51.9021 28.4366 51.9084 28.392 51.9084 28.3537ZM38.6383 39.7424L33.4275 26.0276L50.7989 28.7106L38.6383 39.7424Z" fill="#30466B"/>
<path d="M50.7992 28.6915L38.6385 39.7424L33.4277 26.0276L50.7992 28.6915Z" fill="#30466B"/>
<path d="M51.915 28.1817V27.7611L51.3665 8.31684V7.76876C51.3665 7.73052 51.3665 7.68591 51.3665 7.64767V7.60306C51.3665 7.60306 51.3291 7.55207 51.3104 7.52658H51.0175C51.0175 7.52658 50.9801 7.52658 50.9614 7.52658H50.899C50.899 7.52658 50.8616 7.5457 50.8492 7.56482L50.3256 8.07466L33.2347 24.7593L32.8357 25.1481L32.6924 25.2947V25.3329C32.6924 25.3329 32.6924 25.3648 32.6924 25.3839C32.6924 25.403 32.6924 25.4221 32.6924 25.4413C32.6924 25.4604 32.6924 25.4859 32.6924 25.505C32.6924 25.5241 32.6924 25.5432 32.6924 25.5623V25.6388C32.7235 25.6962 32.7672 25.7408 32.817 25.779H33.0414L33.5027 25.8491L50.7993 28.7106L51.4912 28.8126H51.6408C51.6408 28.8126 51.6844 28.819 51.7093 28.8126H51.7467C51.7841 28.7807 51.8153 28.7361 51.834 28.6915C51.8527 28.6469 51.8651 28.5959 51.8589 28.5449L51.915 28.1817ZM33.6336 25.352L50.6871 8.56539L51.2231 28.0733L33.6336 25.352Z" fill="#30466B"/>
<path d="M51.2229 28.0478L33.6333 25.352L50.6868 8.5654L51.2229 28.0478Z" fill="#30466B"/>
<path d="M51.3351 7.64131V7.5967C51.3351 7.5967 51.2977 7.54572 51.279 7.52023H51.0858L33.0101 5.76126H32.954C32.954 5.76126 32.8916 5.76126 32.8605 5.76126L32.7732 5.7995L32.661 5.76763C32.6236 5.7995 32.5987 5.84411 32.58 5.88872C32.5613 5.93333 32.5488 5.98432 32.5488 6.02893V25.5241C32.5488 25.5241 32.5488 25.5815 32.5488 25.6133C32.5488 25.6898 32.5738 25.7599 32.6174 25.8237C32.6299 25.8428 32.6423 25.8619 32.661 25.881C32.7109 25.9256 32.7732 25.9575 32.8418 25.9575H33.0475L33.2158 25.7982L33.5523 25.4668L50.6869 8.57178L51.223 8.01732C51.2541 7.98546 51.2853 7.94722 51.304 7.90261C51.3227 7.858 51.3289 7.81339 51.3289 7.7624C51.3351 7.72416 51.3414 7.67955 51.3351 7.64131ZM33.2594 24.7594V6.40494L50.2319 8.03644L33.2594 24.7594Z" fill="#30466B"/>
<path d="M50.2318 8.03643L33.2344 24.7593V6.39218L50.2318 8.03643Z" fill="#30466B"/>
<path d="M33.1969 5.82497L33.147 5.76761H32.6608L31.7446 6.68533L20.6062 18.074L20.2883 18.3926C20.2509 18.4309 20.2197 18.4691 20.201 18.5201C20.1823 18.5838 20.1823 18.6412 20.201 18.7049C20.201 18.7304 20.201 18.7623 20.201 18.7878V18.826C20.201 18.826 20.2322 18.8643 20.2571 18.8706L20.3569 18.9216L20.681 19.151L32.2121 25.6133L32.611 25.8364H32.9974L33.0411 25.779C33.0411 25.779 33.0411 25.7217 33.0411 25.6962C33.0473 25.6643 33.0473 25.6388 33.0411 25.607V6.00341C33.1096 5.96517 33.1657 5.90144 33.1969 5.82497ZM21.0861 18.5711L32.5237 6.85103V24.9951L21.0861 18.5711Z" fill="#30466B"/>
<path d="M32.5489 6.85104V24.9952L21.0864 18.5775L32.5489 6.85104Z" fill="#30466B"/>
<path d="M20.8492 18.5838V18.5137L20.8118 18.4373L20.6435 18.1059L16.9037 10.8278L16.7043 10.4391C16.6793 10.3881 16.6419 10.3498 16.5983 10.318C16.5547 10.2861 16.5048 10.267 16.4549 10.2606H16.3178C16.3178 10.2606 16.2679 10.2734 16.243 10.2925C16.2181 10.2989 16.1994 10.318 16.1869 10.3371L5.82141 20.7825C5.82141 20.7825 5.79024 20.8208 5.77778 20.8399C5.77778 20.859 5.77778 20.8781 5.77778 20.8973C5.77778 20.9164 5.77778 20.9291 5.77778 20.9482C5.75908 20.9992 5.75908 21.0502 5.77778 21.1012H5.72168V21.1777C5.75284 21.235 5.79648 21.286 5.84634 21.3179C5.90244 21.3497 5.96477 21.3689 6.0271 21.3689H6.12059L6.50704 21.3051L19.9454 19.1001L20.4503 19.0172H20.6311C20.6311 19.0172 20.6809 18.9917 20.6996 18.979C20.7433 18.9471 20.7807 18.9025 20.8056 18.8515V18.7878C20.8056 18.7878 20.8056 18.7432 20.8056 18.7177C20.8305 18.6794 20.843 18.6285 20.8492 18.5838ZM7.06801 20.4958L16.3178 11.1592L20.0078 18.3926L7.06801 20.4958Z" fill="#30466B"/>
<path d="M19.9894 18.3927L7.06836 20.5149L16.2995 11.1592L19.9894 18.3927Z" fill="#30466B"/>
<path d="M33.197 5.82497L33.1471 5.76761H32.8978C32.8978 5.76761 32.8354 5.76761 32.8043 5.76761H32.7669L16.3179 10.2288C16.3179 10.2288 16.2681 10.2415 16.2431 10.2606C16.2182 10.267 16.1995 10.2861 16.187 10.3052C16.1434 10.3371 16.1122 10.3753 16.0936 10.4263C16.0686 10.4709 16.0562 10.5283 16.0562 10.5793C16.0562 10.6303 16.0686 10.6876 16.0936 10.7322L16.3055 11.1528L19.9954 18.3863L20.1388 18.6731L20.2011 18.7878V18.826C20.2011 18.826 20.2323 18.8643 20.2572 18.8706C20.3008 18.9025 20.3445 18.9216 20.3943 18.9344H20.5813C20.5813 18.9344 20.6312 18.9089 20.6499 18.8961L20.6935 18.8579L20.7371 18.8133L21.0114 18.5265L32.5238 6.85103L33.1471 6.25196C33.2094 6.18186 33.2468 6.09901 33.2468 6.00341C33.2468 5.93968 33.2281 5.87595 33.197 5.82497ZM20.6063 18.074L16.8664 10.796L31.7384 6.68533L20.6063 18.074Z" fill="#30466B"/>
<path d="M31.7387 6.68533L20.6065 18.074L16.8916 10.796L31.7387 6.68533Z" fill="#30466B"/>
<path d="M19.9457 19.1128L11.6246 38.4678L6.50732 21.3115L19.9457 19.1128Z" fill="#30466B"/>
<path d="M33.2222 25.4859C33.2222 25.4859 33.2222 25.454 33.2222 25.4349C33.2097 25.3903 33.1848 25.3584 33.1474 25.3329L33.0726 25.2819H33.0227L32.8544 25.1863L32.5241 24.9952L21.0865 18.5775L20.7811 18.4054L20.6813 18.3544C20.6813 18.3544 20.6502 18.3481 20.6315 18.3544C20.6003 18.3544 20.5754 18.3544 20.5442 18.3544H20.432C20.3884 18.3672 20.351 18.3863 20.3136 18.4182C20.2762 18.4564 20.245 18.4946 20.2263 18.5456L20.164 18.6986L19.977 19.1256L11.2882 39.2581C11.2383 39.3218 11.2134 39.3983 11.2134 39.4748C11.2134 39.5257 11.2258 39.5767 11.2508 39.6277C11.2757 39.6723 11.3131 39.7106 11.3567 39.736C11.3754 39.7488 11.4004 39.7615 11.4253 39.7679H11.631L11.7183 39.7297L12.6532 39.0924L32.7235 26.1168L32.9604 25.9575L33.0476 25.9001L33.0913 25.8428C33.0913 25.8428 33.0913 25.7854 33.0913 25.7599C33.0975 25.7281 33.0975 25.7026 33.0913 25.6707C33.1474 25.6197 33.1972 25.556 33.2222 25.4859ZM12.3416 38.557L20.6813 19.1511L32.2124 25.6133L12.3416 38.557Z" fill="#30466B"/>
<path d="M32.2122 25.6133L12.3413 38.557L20.6811 19.1511L32.2122 25.6133Z" fill="#30466B"/>
<path d="M50.4187 60.0024C50.4125 59.9705 50.4 59.9387 50.3813 59.9068L50.2317 59.6519L39.2803 40.9915L39.0559 40.6092L38.9375 40.4116L38.8128 40.1949L38.7567 40.1312L38.7069 40.0802H38.283L38.2394 40.1248V40.265L38.1521 40.59L38.0586 40.9342L35.5654 49.78L35.4969 50.0349V50.0859C35.4906 50.1305 35.4906 50.1751 35.4969 50.2134C35.5031 50.258 35.5218 50.2962 35.5467 50.3345V50.3727L35.6091 50.4301L35.6839 50.481L37.0738 51.4306L49.6271 60.1936L49.8951 60.3784H50.1569C50.1943 60.3657 50.2255 60.3402 50.2566 60.3147L50.3003 60.2637C50.3314 60.2063 50.3501 60.1426 50.3501 60.0789C50.3813 60.0597 50.4062 60.0343 50.4187 60.0024ZM46.3112 57.0835L36.0952 50.0732L38.5884 41.1891L48.9976 58.919L46.3112 57.0835Z" fill="#30466B"/>
<path d="M48.9976 58.9253L46.3111 57.0835L36.0952 50.105L38.6071 41.2209L48.9976 58.9253Z" fill="#30466B"/>
<path d="M38.8317 40.265V40.1949L38.7569 40.1312L38.707 40.0802H38.3206L38.1087 40.1885L37.1799 40.6665L22.3204 48.3142L22.121 48.4225C22.0524 48.4544 22.0025 48.5118 21.9651 48.5819C21.934 48.652 21.9215 48.7284 21.934 48.7985C21.9464 48.875 21.9838 48.9388 22.0399 48.9897C22.0711 49.0216 22.1085 49.0407 22.1521 49.0535H22.2643L35.5344 50.5575H35.7276C35.8024 50.5575 35.8772 50.532 35.9333 50.4874C35.9957 50.4428 36.0393 50.3791 36.058 50.3026L36.1266 50.054L38.6198 41.1636L38.7569 40.8195L38.8005 40.6793V40.4371C38.8255 40.3861 38.8379 40.3224 38.8317 40.265ZM35.4472 49.8692L23.4174 48.5118L37.9466 41.0234L35.4472 49.8692Z" fill="#30466B"/>
<path d="M37.9466 41.0234L35.4472 49.8692L23.4175 48.5117L37.9466 41.0234Z" fill="#30466B"/>
<path d="M38.8316 40.265V40.1949L38.7568 40.0611L38.7132 39.9527L38.6321 39.7424L33.4276 26.0276L33.2967 25.6834L33.2343 25.5241V25.4859C33.2343 25.4859 33.2343 25.454 33.2343 25.4349C33.2156 25.3903 33.1845 25.3584 33.1471 25.3329L33.0723 25.2819H32.7232L32.5986 25.3648L32.2682 25.5815L12.3412 38.557L11.3938 39.1943C11.3938 39.1943 11.3627 39.1943 11.3502 39.1943C11.3066 39.2326 11.2754 39.2772 11.2567 39.3282C11.238 39.3919 11.238 39.4684 11.2567 39.5321C11.2692 39.5894 11.3066 39.6404 11.3502 39.6787H11.3876C11.3876 39.6787 11.4125 39.6787 11.425 39.6787H11.531L12.5033 39.7105L37.1362 40.6474L38.04 40.6792H38.6508C38.6508 40.6792 38.7069 40.6155 38.7256 40.5773V40.5199C38.763 40.488 38.7879 40.4498 38.8066 40.4052C38.8253 40.3606 38.8316 40.316 38.8316 40.265ZM15.2645 39.2453L12.6965 39.1625L32.7232 26.1168L37.9901 39.9718L15.2645 39.2453Z" fill="#30466B"/>
<path d="M37.9904 39.9719L15.2648 39.2453L12.6968 39.1625L32.7235 26.1168L37.9904 39.9719Z" fill="#30466B"/>
<path d="M38.8317 40.265V40.1949L38.7569 40.1312L38.7071 40.0802H37.9903L15.2647 39.2453L12.6967 39.1625H11.5623C11.4937 39.1625 11.4314 39.1816 11.3753 39.2135H11.3316C11.288 39.2517 11.2568 39.2963 11.2381 39.3473C11.2194 39.411 11.2194 39.4875 11.2381 39.5512C11.2506 39.6086 11.288 39.6596 11.3316 39.6978L21.9278 48.9069C21.9589 48.9388 21.9963 48.9579 22.04 48.9706H22.1522C22.202 48.9706 22.2581 48.9579 22.3018 48.9324L23.3364 48.397L37.9466 41.0234L38.3642 40.8067L38.5263 40.7239L38.6073 40.6793H38.6759C38.6759 40.6793 38.732 40.6155 38.7507 40.5773V40.4817C38.8006 40.4243 38.8317 40.3479 38.8317 40.265ZM22.2768 48.3142L12.5408 39.8571L37.1363 40.6474L22.2768 48.3142Z" fill="#30466B"/>
<path d="M37.1365 40.6474L22.277 48.3142L12.541 39.8571L37.1365 40.6474Z" fill="#30466B"/>
<path d="M50.419 60.0024C50.4127 59.9705 50.4003 59.9387 50.3816 59.9068C50.3566 59.8622 50.3255 59.824 50.2818 59.7985L48.9978 58.919L46.3114 57.0835L36.0955 50.0732L35.8898 49.9266C35.8212 49.882 35.7402 49.8629 35.6654 49.8692C35.5844 49.8756 35.5096 49.9139 35.4535 49.9712C35.4223 50.0094 35.3974 50.0477 35.3787 50.0923V50.1433C35.3725 50.1879 35.3725 50.2325 35.3787 50.2707C35.3849 50.3153 35.4036 50.3536 35.4286 50.3918V50.4301L35.4909 50.532L46.087 66.573C46.1182 66.624 46.1618 66.6623 46.2117 66.6877C46.2615 66.7132 46.3176 66.726 46.3737 66.726C46.4298 66.726 46.4922 66.7069 46.542 66.6814C46.5919 66.6495 46.6355 66.6113 46.6605 66.5539L50.2694 60.3147L50.313 60.2382C50.3442 60.1808 50.3629 60.1171 50.3629 60.0534C50.3878 60.0406 50.4065 60.0215 50.419 60.0024ZM46.3987 65.7764L36.9681 51.5454L49.6274 60.1936L46.3987 65.7764Z" fill="#30466B"/>
<path d="M49.6275 60.2L46.3988 65.7764L36.9683 51.5453L49.6275 60.2Z" fill="#30466B"/>
<path d="M49.7954 60.2701L38.202 40.5136C38.1583 40.4562 38.1396 40.3797 38.1396 40.3096C38.1396 40.2395 38.1646 40.1631 38.202 40.1057C38.2456 40.0483 38.3017 40.0101 38.3703 39.991C38.4388 39.9719 38.5074 39.9719 38.576 39.9974L70.9191 51.4689C70.9752 51.5007 71.0251 51.5453 71.0562 51.6027C71.0874 51.6601 71.1061 51.7238 71.1061 51.7875C71.1061 51.8513 71.0874 51.9214 71.0562 51.9723C71.0188 52.0297 70.9752 52.0743 70.9191 52.1062L50.1694 60.3912C50.1257 60.3975 50.0883 60.3975 50.0447 60.3912C49.9949 60.3912 49.9512 60.3784 49.9076 60.3593C49.864 60.3402 49.8266 60.3083 49.7954 60.2701ZM39.2803 40.9916L50.2317 59.6519L69.8408 51.8003L39.2803 40.9916Z" fill="#425D94"/>
<path d="M70.7262 52.1125L38.3831 40.6729C38.3083 40.6537 38.2397 40.6028 38.1961 40.539C38.1525 40.4753 38.1275 40.3925 38.1338 40.3096C38.1338 40.2331 38.1712 40.1566 38.221 40.0993C38.2709 40.0419 38.3457 40.0037 38.4205 39.9973L74.572 34.2616C74.6281 34.2488 74.6842 34.2616 74.7403 34.2743C74.7964 34.2934 74.84 34.3253 74.8774 34.3699C74.9148 34.4081 74.946 34.4591 74.9584 34.5165C74.9771 34.5738 74.9771 34.6312 74.9584 34.6886L71.1625 51.8576C71.1501 51.9086 71.1314 51.9532 71.1002 51.9914C71.069 52.0297 71.0316 52.0615 70.9942 52.087C70.9444 52.1189 70.882 52.1316 70.8259 52.1316C70.7885 52.1316 70.7574 52.1253 70.72 52.1125H70.7262ZM39.9164 40.4753L70.5891 51.3095L74.1731 35.02L39.9164 40.4753Z" fill="#425D94"/>
<path d="M74.5345 34.9499L51.4724 28.7935C51.41 28.7807 51.3539 28.7425 51.3103 28.6979C51.2667 28.6533 51.2355 28.5895 51.223 28.5258C51.2106 28.4621 51.2168 28.392 51.2417 28.3346C51.2667 28.2709 51.3041 28.2199 51.3539 28.1753L67.9961 15.2826C68.0397 15.2507 68.0896 15.2252 68.1394 15.2189C68.1893 15.2061 68.2454 15.2125 68.3015 15.2252C68.3514 15.2444 68.4012 15.2698 68.4386 15.3081C68.476 15.3463 68.5072 15.3973 68.5259 15.4483L74.9459 34.491C74.9646 34.5547 74.9708 34.6185 74.9584 34.6822C74.9459 34.7459 74.9147 34.8033 74.8711 34.8479C74.8399 34.8861 74.8025 34.9116 74.7589 34.9307C74.7153 34.9499 74.6716 34.9626 74.6218 34.9626L74.5345 34.9499ZM52.3512 28.2964L74.0857 34.1022L68.0522 16.1366L52.3512 28.2964Z" fill="#425D94"/>
<path d="M38.4888 40.692C38.4452 40.692 38.3953 40.6856 38.3579 40.6665C38.3143 40.6474 38.2769 40.6219 38.2457 40.59C38.2146 40.5582 38.1896 40.5199 38.1709 40.4753C38.1522 40.4307 38.146 40.3861 38.146 40.3415C38.146 40.2778 38.1647 40.2204 38.1959 40.163C38.227 40.1121 38.2707 40.0674 38.3205 40.0356L51.3538 28.1944C51.3974 28.1562 51.4473 28.1307 51.5034 28.118C51.5595 28.1052 51.6156 28.1052 51.6716 28.118L74.7338 34.268C74.8086 34.2871 74.8834 34.3317 74.927 34.4018C74.9769 34.4655 74.9956 34.5484 74.9956 34.6312C74.9956 34.7141 74.9582 34.7906 74.9021 34.8479C74.846 34.9053 74.7712 34.9435 74.6964 34.9563L38.5761 40.692H38.495H38.4888ZM51.6716 28.8445L39.5983 39.8125L72.9325 34.5229L51.6716 28.8445Z" fill="#425D94"/>
<path d="M51.4284 28.7744C51.3723 28.7489 51.3224 28.7043 51.2913 28.6469C51.2601 28.5959 51.2414 28.5322 51.2352 28.4685L50.668 7.76877C50.668 7.71141 50.6742 7.64768 50.7054 7.59669C50.7303 7.54571 50.7739 7.5011 50.8176 7.46923C50.8674 7.44374 50.9235 7.42462 50.9796 7.42462C51.0357 7.42462 51.0918 7.43737 51.1417 7.46923L68.3323 15.2762C68.3884 15.3017 68.4383 15.34 68.4695 15.3909C68.5069 15.4419 68.5318 15.4993 68.538 15.5566C68.5443 15.6204 68.538 15.6777 68.5131 15.7351C68.4882 15.7925 68.4508 15.8371 68.4009 15.8753L51.7774 28.7106C51.7151 28.7553 51.6466 28.7808 51.5718 28.7808C51.5219 28.7871 51.472 28.7808 51.4222 28.7808L51.4284 28.7744ZM51.3661 8.31685L51.9021 27.7674L67.5283 15.6586L51.3661 8.31685Z" fill="#425D94"/>
<path d="M38.414 40.6856C38.3579 40.6729 38.3143 40.641 38.2706 40.6092C38.227 40.5709 38.1958 40.5263 38.1771 40.469L32.5674 25.7153C32.5487 25.658 32.5425 25.5942 32.5487 25.5369C32.5612 25.4795 32.5861 25.4222 32.6235 25.3712C32.6609 25.3202 32.7108 25.2819 32.7669 25.2628C32.823 25.2373 32.8853 25.231 32.9414 25.2437L51.6405 28.1116C51.7028 28.1243 51.7651 28.1498 51.815 28.1944C51.8648 28.239 51.9022 28.2964 51.9209 28.3601C51.9396 28.4239 51.9396 28.494 51.9209 28.5577C51.9022 28.6214 51.8711 28.6788 51.8212 28.7234L38.7568 40.6092C38.6945 40.6665 38.6135 40.6984 38.5262 40.6984H38.414V40.6856ZM33.4276 26.0276L38.6384 39.7424L50.799 28.7107L33.4276 26.0276Z" fill="#425D94"/>
<path d="M51.5282 28.8062L32.8292 25.9384C32.7668 25.9256 32.7045 25.9001 32.6547 25.8555C32.6048 25.8109 32.5674 25.7599 32.5487 25.6962C32.53 25.6324 32.53 25.5687 32.5487 25.505C32.5674 25.4413 32.5986 25.3839 32.6422 25.3393L50.7616 7.49471C50.8114 7.4501 50.8675 7.41824 50.9361 7.40549C51.0047 7.39274 51.067 7.40549 51.1293 7.42461C51.1917 7.4501 51.2415 7.49471 51.2789 7.5457C51.3163 7.60306 51.335 7.66679 51.3412 7.73689L51.9084 28.4366C51.9084 28.4876 51.9084 28.5386 51.8835 28.5832C51.8648 28.6278 51.8337 28.6724 51.7963 28.7043C51.7339 28.7616 51.6529 28.7935 51.5656 28.7935L51.5282 28.8062ZM33.6332 25.3457L51.2228 28.0733L50.6868 8.56539L33.6332 25.3457Z" fill="#425D94"/>
<path d="M32.8854 25.9447C32.8356 25.9447 32.7919 25.9447 32.7483 25.9256C32.7047 25.9065 32.6611 25.881 32.6299 25.8491C32.5987 25.8173 32.5676 25.7727 32.5489 25.7281C32.5302 25.6834 32.5239 25.6325 32.5239 25.5879C32.5239 25.5687 32.5239 25.5432 32.5239 25.5241V6.00343C32.5302 5.95882 32.5489 5.90784 32.5738 5.8696C32.5987 5.83136 32.6299 5.79312 32.6673 5.76763C32.7047 5.73576 32.7421 5.71027 32.7919 5.69752C32.8356 5.68478 32.8854 5.67841 32.9291 5.67841L51.0422 7.41188C51.1108 7.41188 51.1731 7.44374 51.223 7.48198C51.2728 7.52659 51.3165 7.57758 51.3352 7.64768C51.3539 7.71141 51.3601 7.78152 51.3476 7.84525C51.3352 7.90898 51.2978 7.97271 51.2479 8.01732L33.1472 25.8428C33.0849 25.9065 32.9976 25.9447 32.9104 25.9447H32.8854ZM33.2407 6.40494V24.7657L50.2319 8.03644L33.2407 6.40494Z" fill="#425D94"/>
<path d="M32.7233 25.9001L20.3508 18.9726C20.3072 18.9471 20.2635 18.9089 20.2324 18.8643C20.2012 18.8197 20.1825 18.7687 20.1763 18.7113C20.17 18.6603 20.1763 18.603 20.1887 18.552C20.2074 18.501 20.2324 18.45 20.2698 18.4118L32.6548 5.76763C32.7046 5.71664 32.7607 5.68478 32.8293 5.67203C32.8979 5.65929 32.9664 5.67203 33.0288 5.69115C33.0911 5.71664 33.1472 5.76125 33.1846 5.81861C33.222 5.87597 33.2407 5.94607 33.2407 6.01618V25.5879C33.2407 25.6516 33.2282 25.7089 33.1971 25.7663C33.1659 25.8173 33.1223 25.8619 33.0724 25.8938C33.0225 25.9256 32.9602 25.9447 32.8979 25.9447C32.8355 25.9447 32.7794 25.9256 32.7233 25.9001ZM21.0863 18.5775L32.5239 24.9952V6.85105L21.0863 18.5775Z" fill="#425D94"/>
<path d="M5.75909 21.1904C5.72792 21.1267 5.71546 21.0502 5.72792 20.9737C5.74039 20.9036 5.77155 20.8335 5.82142 20.7825L16.1495 10.3244C16.1869 10.2861 16.2368 10.2542 16.2867 10.2415C16.3365 10.2224 16.3926 10.2224 16.4425 10.2288C16.4986 10.2351 16.5484 10.2542 16.5921 10.2861C16.6357 10.318 16.6731 10.3626 16.6918 10.4136L20.8181 18.5137C20.843 18.5647 20.8555 18.6157 20.8555 18.6731C20.8555 18.7304 20.843 18.7814 20.8181 18.8324C20.7931 18.8834 20.7557 18.928 20.7121 18.9599C20.6685 18.9917 20.6186 19.0172 20.5625 19.0236L6.1206 21.3816H6.0645C6.00217 21.3816 5.93984 21.3625 5.88375 21.3306C5.82765 21.2988 5.78402 21.2478 5.75909 21.1904ZM16.3178 11.1592L7.06802 20.5149L19.9891 18.3926L16.3178 11.1592Z" fill="#425D94"/>
<path d="M20.4628 19.0109C20.4129 18.9981 20.3631 18.979 20.3194 18.9471C20.2758 18.9153 20.2384 18.8707 20.2135 18.826L16.081 10.7386C16.0623 10.6876 16.0498 10.6367 16.0498 10.5857C16.0498 10.5347 16.0623 10.4837 16.081 10.4327C16.0997 10.3817 16.1371 10.3371 16.1745 10.3053C16.2181 10.267 16.2617 10.2415 16.3178 10.2288L32.8042 5.66567C32.879 5.64655 32.9538 5.64655 33.0285 5.67841C33.1033 5.71028 33.1594 5.76126 33.1968 5.82499C33.2342 5.8951 33.2467 5.97157 33.2342 6.04805C33.2218 6.12453 33.1906 6.19463 33.1407 6.25199L20.762 18.9089C20.7308 18.9408 20.6934 18.9662 20.6498 18.9854C20.6061 19.0045 20.5625 19.0109 20.5126 19.0109H20.4628ZM16.8913 10.796L20.6311 18.074L31.7383 6.68536L16.8913 10.796Z" fill="#425D94"/>
<path d="M11.5562 39.8253C11.4627 39.8253 11.3754 39.787 11.3131 39.7233C11.2508 39.6596 11.2134 39.5703 11.2134 39.4747C11.2134 39.3983 11.2383 39.3218 11.2882 39.2581L20.2014 18.5137C20.2201 18.4691 20.2513 18.4309 20.2824 18.399C20.3198 18.3672 20.3572 18.3417 20.4071 18.3225C20.4507 18.3034 20.4943 18.2907 20.5442 18.2907C20.5941 18.2907 20.6377 18.3034 20.6813 18.3225L33.0539 25.2819C33.11 25.3138 33.1536 25.352 33.1848 25.4094C33.2159 25.4604 33.2346 25.5241 33.2346 25.5815C33.2346 25.6388 33.2222 25.7026 33.1972 25.7535C33.1723 25.8045 33.1287 25.8555 33.0788 25.8874L11.7557 39.7743C11.6996 39.8125 11.6372 39.8253 11.5687 39.8253H11.5562ZM20.6813 19.151L12.3416 38.557L32.2187 25.6133L20.6813 19.151Z" fill="#425D94"/>
<path d="M49.8952 60.3848L35.5031 50.5448C35.4408 50.5065 35.3971 50.4428 35.3722 50.3727C35.3473 50.3026 35.3473 50.2261 35.3722 50.156L38.1708 40.2459C38.1895 40.1822 38.2269 40.1248 38.2768 40.0802C38.3267 40.0356 38.389 40.0037 38.4576 39.991C38.5261 39.9846 38.5947 39.991 38.6508 40.0229C38.7131 40.0547 38.763 40.0993 38.8004 40.1631L50.3876 59.9387C50.4312 60.0088 50.4437 60.0916 50.4374 60.1681C50.425 60.251 50.3876 60.3211 50.3315 60.3784C50.2691 60.4421 50.1819 60.474 50.0946 60.474C50.026 60.4613 49.9575 60.4358 49.9014 60.3848H49.8952ZM36.0952 50.105L49.0038 58.9254L38.6072 41.2146L36.0952 50.105Z" fill="#425D94"/>
<path d="M35.6406 50.6021L22.1959 49.1045C22.1211 49.0981 22.0526 49.0662 21.9965 49.0152C21.9404 48.9643 21.903 48.8942 21.8905 48.8177C21.8781 48.7412 21.8905 48.6647 21.9217 48.601C21.9528 48.5309 22.0089 48.4799 22.0775 48.4417L38.3457 40.0483C38.408 40.0165 38.4704 40.0037 38.5389 40.0165C38.6075 40.0229 38.6698 40.0547 38.7197 40.093C38.7695 40.1376 38.8069 40.1949 38.8256 40.2587C38.8443 40.3224 38.8443 40.3925 38.8256 40.4562L36.027 50.3791C36.0083 50.4492 35.9647 50.5129 35.9023 50.5639C35.84 50.6085 35.7715 50.634 35.6967 50.634L35.6406 50.6021ZM23.4176 48.5181L35.4473 49.8692L37.9405 41.0171L23.4176 48.5181Z" fill="#425D94"/>
<path d="M38.4887 40.692L11.5558 39.8253C11.481 39.8253 11.4125 39.7998 11.3564 39.7552C11.3003 39.7106 11.2566 39.6468 11.2379 39.5704C11.2192 39.5003 11.2192 39.4238 11.2442 39.3537C11.2691 39.2836 11.319 39.2262 11.3813 39.1816L32.7045 25.2947C32.7481 25.2692 32.798 25.2501 32.8478 25.2437C32.8977 25.2373 32.9475 25.2437 32.9974 25.2565C33.0473 25.2692 33.0909 25.3011 33.1283 25.3329C33.1657 25.3712 33.1906 25.4094 33.2093 25.4604L38.819 40.214C38.8377 40.265 38.844 40.3224 38.8377 40.3797C38.8315 40.4371 38.8128 40.4944 38.7817 40.5391C38.7505 40.5837 38.7069 40.6219 38.657 40.6538C38.6071 40.6793 38.551 40.692 38.4949 40.692H38.4887ZM12.6902 39.1625L37.9901 39.9719L32.7232 26.1168L12.6902 39.1625Z" fill="#425D94"/>
<path d="M22.0089 49.0025L11.3317 39.7424C11.2756 39.6978 11.2382 39.6341 11.2195 39.5576C11.2008 39.4875 11.207 39.411 11.2382 39.3473C11.2631 39.2772 11.3068 39.2198 11.3691 39.1816C11.4314 39.1433 11.5 39.1242 11.5686 39.1242L38.5077 39.9909C38.5825 39.9909 38.6573 40.0228 38.7134 40.0738C38.7694 40.1248 38.8131 40.1885 38.8318 40.265C38.8505 40.3415 38.8442 40.4243 38.8068 40.4944C38.7757 40.5645 38.7196 40.6219 38.651 40.6537L22.3828 49.0471C22.3392 49.0726 22.2831 49.0853 22.2332 49.0853C22.1522 49.0853 22.0712 49.0598 22.0089 49.0025ZM12.5409 39.8571L22.2769 48.3142L37.1364 40.6665L12.5409 39.8571Z" fill="#425D94"/>
<path d="M46.1368 66.6304L35.4098 50.4492C35.3662 50.3791 35.3475 50.3026 35.3537 50.2198C35.3599 50.1369 35.3973 50.0604 35.4534 50.0031C35.5095 49.9457 35.5843 49.9138 35.6654 49.9011C35.7464 49.8947 35.8212 49.9138 35.8897 49.9585L50.2818 59.7985C50.3566 59.8494 50.4064 59.9259 50.4251 60.0151C50.4438 60.1044 50.4251 60.1936 50.3815 60.2701L46.7165 66.6431C46.6853 66.6941 46.6479 66.7387 46.5981 66.7706C46.5482 66.8025 46.4921 66.8152 46.4298 66.8152C46.3675 66.8152 46.3114 66.7961 46.2615 66.7642C46.2116 66.7324 46.168 66.6877 46.1368 66.6304ZM36.9681 51.5453L46.3986 65.7764L49.6273 60.2L36.9681 51.5453Z" fill="#425D94"/>
<path d="M22.0089 49.0025L11.3317 39.7424C11.2756 39.6978 11.2382 39.6341 11.2195 39.5576C11.2008 39.4875 11.207 39.411 11.2382 39.3473C11.2631 39.2772 11.3068 39.2198 11.3691 39.1816C11.4314 39.1433 11.5 39.1242 11.5686 39.1242L38.5077 39.9909C38.5825 39.9909 38.6573 40.0228 38.7134 40.0738C38.7694 40.1248 38.8131 40.1885 38.8318 40.265C38.8505 40.3415 38.8442 40.4243 38.8068 40.4944C38.7757 40.5645 38.7196 40.6219 38.651 40.6537L22.3828 49.0471C22.3392 49.0726 22.2831 49.0853 22.2332 49.0853C22.1522 49.0853 22.0712 49.0598 22.0089 49.0025ZM12.5409 39.8571L22.2769 48.3142L37.1364 40.6665L12.5409 39.8571Z" fill="#425D94"/>
<path d="M35.6406 50.6021L22.1959 49.1045C22.1211 49.0981 22.0526 49.0662 21.9965 49.0152C21.9404 48.9643 21.903 48.8942 21.8905 48.8177C21.8781 48.7412 21.8905 48.6647 21.9217 48.601C21.9528 48.5309 22.0089 48.4799 22.0775 48.4417L38.3457 40.0483C38.408 40.0165 38.4704 40.0037 38.5389 40.0165C38.6075 40.0229 38.6698 40.0547 38.7197 40.093C38.7695 40.1376 38.8069 40.1949 38.8256 40.2587C38.8443 40.3224 38.8443 40.3925 38.8256 40.4562L36.027 50.3791C36.0083 50.4492 35.9647 50.5129 35.9023 50.5639C35.84 50.6085 35.7715 50.634 35.6967 50.634L35.6406 50.6021ZM23.4176 48.5181L35.4473 49.8692L37.9405 41.0171L23.4176 48.5181Z" fill="#425D94"/>
<path d="M46.1368 66.6304L35.4098 50.4492C35.3662 50.3791 35.3475 50.3026 35.3537 50.2198C35.3599 50.1369 35.3973 50.0604 35.4534 50.0031C35.5095 49.9457 35.5843 49.9138 35.6654 49.9011C35.7464 49.8947 35.8212 49.9138 35.8897 49.9585L50.2818 59.7985C50.3566 59.8494 50.4064 59.9259 50.4251 60.0151C50.4438 60.1044 50.4251 60.1936 50.3815 60.2701L46.7165 66.6431C46.6853 66.6941 46.6479 66.7387 46.5981 66.7706C46.5482 66.8025 46.4921 66.8152 46.4298 66.8152C46.3675 66.8152 46.3114 66.7961 46.2615 66.7642C46.2116 66.7324 46.168 66.6877 46.1368 66.6304ZM36.9681 51.5453L46.3986 65.7764L49.6273 60.2L36.9681 51.5453Z" fill="#425D94"/>
<path d="M70.7262 52.1125L38.3831 40.6729C38.3083 40.6537 38.2397 40.6028 38.1961 40.539C38.1525 40.4753 38.1275 40.3925 38.1338 40.3096C38.1338 40.2331 38.1712 40.1566 38.221 40.0993C38.2709 40.0419 38.3457 40.0037 38.4205 39.9973L74.572 34.2616C74.6281 34.2488 74.6842 34.2616 74.7403 34.2743C74.7964 34.2934 74.84 34.3253 74.8774 34.3699C74.9148 34.4081 74.946 34.4591 74.9584 34.5165C74.9771 34.5738 74.9771 34.6312 74.9584 34.6886L71.1625 51.8576C71.1501 51.9086 71.1314 51.9532 71.1002 51.9914C71.069 52.0297 71.0316 52.0615 70.9942 52.087C70.9444 52.1189 70.882 52.1316 70.8259 52.1316C70.7885 52.1316 70.7574 52.1253 70.72 52.1125H70.7262ZM39.9164 40.4753L70.5891 51.3095L74.1731 35.02L39.9164 40.4753Z" fill="#425D94"/>
<path d="M38.4888 40.692C38.4452 40.692 38.3953 40.6856 38.3579 40.6665C38.3143 40.6474 38.2769 40.6219 38.2457 40.59C38.2146 40.5582 38.1896 40.5199 38.1709 40.4753C38.1522 40.4307 38.146 40.3861 38.146 40.3415C38.146 40.2778 38.1647 40.2204 38.1959 40.163C38.227 40.1121 38.2707 40.0674 38.3205 40.0356L51.3538 28.1944C51.3974 28.1562 51.4473 28.1307 51.5034 28.118C51.5595 28.1052 51.6156 28.1052 51.6716 28.118L74.7338 34.268C74.8086 34.2871 74.8834 34.3317 74.927 34.4018C74.9769 34.4655 74.9956 34.5484 74.9956 34.6312C74.9956 34.7141 74.9582 34.7906 74.9021 34.8479C74.846 34.9053 74.7712 34.9435 74.6964 34.9563L38.5761 40.692H38.495H38.4888ZM51.6716 28.8445L39.5983 39.8125L72.9325 34.5229L51.6716 28.8445Z" fill="#425D94"/>
<path d="M32.7235 15.5056C36.0394 15.5056 38.7321 12.7525 38.7321 9.36202C38.7321 5.97155 36.0394 3.21838 32.7235 3.21838C29.4075 3.21838 26.7148 5.97155 26.7148 9.36202C26.7148 12.7525 29.4075 15.5056 32.7235 15.5056Z" fill="#5E7EB9"/>
<path d="M67.4726 21.4772C70.0531 21.4772 72.1474 19.3359 72.1474 16.6974C72.1474 14.059 70.0531 11.9176 67.4726 11.9176C64.8921 11.9176 62.7979 14.059 62.7979 16.6974C62.7979 19.3359 64.8921 21.4772 67.4726 21.4772Z" fill="#425D94"/>
<path d="M20.6938 21.337C22.0277 21.337 23.1122 20.2281 23.1122 18.8643C23.1122 17.5004 22.0277 16.3915 20.6938 16.3915C19.3599 16.3915 18.2754 17.5004 18.2754 18.8643C18.2754 20.2281 19.3599 21.337 20.6938 21.337Z" fill="#654DC0"/>
<path d="M52.1394 31.5084C53.6852 31.5084 54.9381 30.2274 54.9381 28.6469C54.9381 27.0664 53.6852 25.7854 52.1394 25.7854C50.5937 25.7854 49.3408 27.0664 49.3408 28.6469C49.3408 30.2274 50.5937 31.5084 52.1394 31.5084Z" fill="#285A70"/>
<path d="M73.3625 39.9591C75.9242 39.9591 77.9998 37.8369 77.9998 35.2175C77.9998 32.5982 75.9242 30.476 73.3625 30.476C70.8007 30.476 68.7251 32.5982 68.7251 35.2175C68.7251 37.8369 70.8007 39.9591 73.3625 39.9591Z" fill="#285A70"/>
<path d="M60.828 51.0992C62.754 51.0992 64.3123 49.5059 64.3123 47.5367C64.3123 45.5674 62.754 43.9741 60.828 43.9741C58.902 43.9741 57.3438 45.5674 57.3438 47.5367C57.3438 49.5059 58.902 51.0992 60.828 51.0992Z" fill="#654DC0"/>
<path d="M18.7051 11.3823L19.7335 17.1818L28.9148 9.92285L18.7051 11.3823Z" fill="white"/>
<path d="M24.1094 25.0206L32.3183 20.4448L30.3237 25.4094L24.1094 25.0206Z" fill="white"/>
<path d="M31.8259 14.8556L24.1094 25.0143L32.3183 20.4384L31.8259 14.8556Z" fill="white"/>
<path d="M28.9151 9.92285L31.8259 14.862L19.7339 17.1818L28.9151 9.92285Z" fill="white"/>
<path d="M2.83605 5.61468L2.12549 0.541718L5.70947 1.49768L2.83605 5.61468Z" fill="white"/>
<path d="M5.70947 1.49768L12.572 3.53706L18.1755 10.8151L5.70947 1.49768Z" fill="white"/>
<path d="M7.06192 21.866L2.83594 5.61465L18.1754 10.8151L7.06192 21.866Z" fill="white"/>
<path d="M0.311523 13.6638V25.607L7.06188 21.866L0.311523 13.6638Z" fill="white"/>
<path d="M18.1754 10.8151L2.83594 5.61468L5.70936 1.49768L18.1754 10.8151Z" fill="white"/>
<path d="M2.8359 5.61465L0.311523 13.6638L7.06188 21.866L2.8359 5.61465Z" fill="white"/>
<path d="M10.7394 34.6121L0.311523 25.607L7.06188 21.866L10.7394 34.6121Z" fill="white"/>
<path d="M32.2995 10.8214L39.6358 6.80642L26.8145 5.49994L29.9247 7.5903L32.2995 10.8214Z" fill="white"/>
<path d="M26.8145 5.49996L32.7109 0.318665L38.0214 2.02027L26.8145 5.49359V5.49996Z" fill="white"/>
<path d="M34.7181 25.5815L41.4373 18.3353L33.7271 12.2936L34.7181 25.5815Z" fill="white"/>
<path d="M33.9327 25.4349L35.9398 25.8237L33.7271 12.2936L33.9327 25.4285V25.4349Z" fill="white"/>
<path d="M36.5942 23.5612L40.3964 19.457L33.833 12.7907L36.588 23.5548L36.5942 23.5612Z" fill="white"/>
<path d="M32.9725 11.5671L33.7267 12.2936L41.4369 18.3353L39.6356 6.80643L32.2993 10.8215L32.9725 11.5671Z" fill="white"/>
<path d="M26.8145 5.49996L39.6358 6.80643L38.0214 2.02026L26.8145 5.49358V5.49996Z" fill="white"/>
<path d="M34.7178 25.5815L37.3356 26.0977L41.437 18.3353L34.7178 25.5815Z" fill="white"/>
<path d="M66.1075 53.2915C67.3541 42.776 60.8282 39.035 60.8282 39.035C56.0287 36.0333 47.4833 31.0878 46.5172 29.3479C46.5172 29.3479 40.0784 21.4326 46.3489 13.205C46.3489 13.205 53.7973 5.78036 62.4425 13.9315C62.4425 13.9315 62.617 14.2502 62.8352 14.76C64.1753 17.9465 60.1425 20.6105 57.8799 18.0294C57.855 17.9975 57.8239 17.9657 57.7989 17.9338C57.7989 17.9338 55.9165 14.4605 52.4697 15.9773C50.3941 16.895 49.1163 19.0746 49.1974 21.3944C49.2721 23.5421 50.1946 26.3972 53.654 29.1185C53.654 29.1185 66.6934 36.3902 68.8563 39.2007C68.8563 39.2007 72.0289 43.6937 70.5891 51.3095" fill="#6098BF"/>
<path d="M48.7798 44.1462L47.2154 39.6022L45.146 35.721L34.9363 25.6261L33.9453 25.4349L33.7396 12.3L29.9374 7.59031L26.8271 5.49995L19.5719 4.51849L14.1928 5.62741L18.157 10.8469L7.07471 21.866L12.3229 39.8762L23.0499 49.2192L36.2515 50.6786L39.2994 55.3245L46.5484 66.6813L50.9801 60.0916L48.7861 44.1462H48.7798ZM24.1095 25.0206L19.734 17.1818L18.7055 11.3823L28.9152 9.92285L31.826 14.862L32.3184 20.4448L30.3239 25.4094L24.1095 25.0206Z" fill="#6098BF"/>
<path d="M19.7397 17.1818L31.8318 14.862L24.1153 25.0206L19.7397 17.1818Z" fill="white"/>
<path d="M46.542 67C46.436 67 46.3425 66.949 46.2864 66.8598L35.5095 50.7869L23.0123 49.5378C22.95 49.5378 22.8939 49.5059 22.844 49.4677L12.0422 40.3287C11.9923 40.2905 11.9549 40.2331 11.9425 40.1694L10.4652 34.7969L0.112194 25.8491C0.0436311 25.7918 0 25.7026 0 25.607V13.6638C0 13.632 0 13.6001 0.012466 13.5682L2.51191 5.58917L1.81381 0.586315C1.80134 0.477973 1.83874 0.369631 1.91977 0.299528C2.0008 0.229424 2.10676 0.203932 2.20649 0.229424L12.653 3.22476C12.7154 3.24388 12.7715 3.28212 12.8151 3.33311L14.3048 5.27052L19.4907 4.19984C19.5218 4.19984 19.5592 4.19347 19.5904 4.19984L26.7085 5.16217L32.5052 0.0764705C32.5862 0.00636686 32.6984 -0.0191254 32.8044 0.0127399L38.1149 1.71435C38.2084 1.74621 38.2832 1.81632 38.3144 1.91191L39.9287 6.69808C39.9848 6.86378 39.8976 7.0486 39.7355 7.10596C39.5734 7.16331 39.3927 7.07409 39.3366 6.90839L37.7721 2.27518L32.7794 0.669165L27.0139 5.72938C26.9453 5.78673 26.8581 5.8186 26.7708 5.80585L19.5654 4.83077L14.2424 5.92694C14.1303 5.95243 14.0118 5.90782 13.937 5.81223L12.3912 3.80471L2.49944 0.981445L3.14144 5.57005C3.14767 5.61466 3.14144 5.66565 3.12898 5.71026L0.623302 13.7148V25.4604L10.9389 34.3699C10.9888 34.4082 11.02 34.4655 11.0387 34.5292L12.5159 39.9017L23.1681 48.9132L35.7152 50.1624C35.8087 50.1687 35.8897 50.2197 35.9396 50.3026L46.5295 66.1078L50.7056 59.4861C50.7991 59.3396 50.9923 59.295 51.1357 59.3906C51.279 59.4862 51.3227 59.6837 51.2292 59.8303L46.7975 66.8598C46.7414 66.949 46.6417 67.0064 46.542 67.0064V67Z" fill="#425D94"/>
</g>
<defs>
<clipPath id="clip0_4307_1972">
<rect width="78" height="67" fill="white"/>
</clipPath>
</defs>
</svg>
